<svg data-v-fde0c5aa="" xmlns="http://www.w3.org/2000/svg" viewBox="0 0 300 300" class="iconLeft"><!----><defs data-v-fde0c5aa=""><!----></defs><rect data-v-fde0c5aa="" fill="#FFFFFF" x="0" y="0" width="300px" height="300px" class="logo-background-square"></rect><defs data-v-fde0c5aa=""><!----></defs><g data-v-fde0c5aa="" id="2167c61e-2f56-4171-9590-a97778500844" fill="#FFFFFF" transform="matrix(3.5131163597106934,0,0,3.5131163597106934,98.32803454975394,122.95174909579535)"><path d="M0.84 2.80L0.84 12.60L3.64 12.60L3.64 8.04L7.42 12.60L10.86 12.60L6.55 7.39L10.65 2.80L7.35 2.80L3.64 6.94L3.64 2.80ZM11.63 2.80L11.63 12.60L14.50 12.60L14.50 2.80ZM18.66 7.70C18.66 6.83 18.93 6.15 19.45 5.66C19.98 5.17 20.64 4.93 21.43 4.93C22.11 4.93 22.74 5.07 23.34 5.37C23.95 5.66 24.41 6.03 24.72 6.48L24.72 3.32C23.96 2.79 22.86 2.52 21.43 2.52C19.73 2.52 18.35 2.99 17.32 3.93C16.28 4.88 15.76 6.13 15.76 7.70C15.76 9.27 16.28 10.52 17.32 11.47C18.35 12.41 19.73 12.88 21.43 12.88C22.86 12.88 23.96 12.61 24.72 12.08L24.72 8.92C24.41 9.37 23.95 9.74 23.34 10.03C22.74 10.32 22.11 10.47 21.43 10.47C20.64 10.47 19.98 10.23 19.45 9.74C18.93 9.25 18.66 8.57 18.66 7.70ZM26.40 2.80L26.40 12.60L29.20 12.60L29.20 8.04L32.98 12.60L36.43 12.60L32.12 7.39L36.22 2.80L32.91 2.80L29.20 6.94L29.20 2.80ZM37.97 5.25L41.69 5.25L36.92 12.60L45.11 12.60L45.11 10.29L41.15 10.29L46.02 2.80L37.97 2.80Z"></path></g><defs data-v-fde0c5aa=""><!----></defs><g data-v-fde0c5aa="" id="1b5a9ba5-56fb-4b5e-90fb-57879efbe872" stroke="none" fill="#A60909" transform="matrix(0.545905351638794,0,0,0.545905351638794,36.84398476535843,122.70473310580262)"><path d="M92.523 18.54c-.014-.014-.026-.027-.041-.04-.609-.587-1.662-.721-2.481-.724l-.162-1.434a1.009 1.009 0 0 0-1.315-.841l-1.719.573-1.621-2.487a1.013 1.013 0 0 0-1.105-.42c-.604.165-1.473.416-2.506.744a79.218 79.218 0 0 0-.834-.815.95.95 0 0 0-.187-.176C73.784 6.506 66.785 2.278 59.209.022h-.004l-.008-.004c-.055-.016-.109-.007-.165-.012a.99.99 0 0 0-.89.347c-.027.034-.041.082-.063.121-.043.071-.095.139-.118.223v.004l-.004.007-.682 2.385c-.176.617-1.625 1.3-3.49.958L33.068.303c-2.604-.468-5.692.947-7.031 3.229l-1.93 3.293c-1.292 2.201-1.443 5.729-.345 8.031l5.223 10.959c.011.022.028.038.04.06.018.03.037.058.058.086a.969.969 0 0 0 .18.192c.023.02.042.04.067.057.095.063.197.114.307.142.021.006.044.005.066.01.063.012.125.026.189.026.025 0 .049-.015.074-.017.029-.003.056.008.085.003l5.015-.804-5.284 4.062c-1.044.802-2.129 2.427-2.47 3.701l-.46 1.718-1.033.353a1.003 1.003 0 0 0 .325 1.955c.031 0 .063-.013.094-.016l-1.213 4.53-.058.265-.399.031a1.007 1.007 0 0 0-.925 1.079.995.995 0 0 0 .883.905 150.924 150.924 0 0 1-1.114 4.604 1 1 0 0 0-1.288.513c-.228.505-.002 1.1.503 1.328l.264.119a125.831 125.831 0 0 1-1.699 5.698.994.994 0 0 0-1.035.163c-.417.365-.461 1-.096 1.417l.433.496a102.862 102.862 0 0 1-2.258 5.938.959.959 0 0 0-.48-.025c-.542.117-.888.65-.771 1.193l.247 1.151c-2.81 6.243-5.549 10.418-7.589 13.524-3.392 5.166-5.294 8.092-2.542 12.787l-.456.303c-.405.268-.56.787-.369 1.234.887 2.068 3.924 5.405 7.126 5.404.239 0 .479-.02.719-.059 1.31-.213 3.859-.635 9.37-4.17.008-.002.016-.004.024-.008.042-.02.073-.054.112-.078 6.48-4.178 17.009-12.621 34.348-29.961C76.021 47.676 84.9 38.189 89.639 31.887c5.006-6.657 5.816-10.402 2.884-13.347zm-4.412.405a1.004 1.004 0 0 0 1.121.884 6.18 6.18 0 0 1 1.22-.022c-2.834 5.503-16.765 21.83-30.127 35.191-11.047 11.047-20.286 17.82-28.506 23.225 13.868-21.914 42.699-55.932 54.882-59.999h.003l1.276-.425.131 1.146zm-3.233-2.148c-7.286 3.279-19.991 15.715-32.08 29.896 3.97-6.632 7.519-13.512 9.984-20.377 5.409-5.338 13.795-8.667 18.745-10.283a.977.977 0 0 0 .24-.078 68.662 68.662 0 0 1 2.135-.653l.976 1.495zm-5.446-2.17c-4.383 1.533-10.504 4.132-15.426 7.961.518-1.734.979-3.465 1.328-5.188 1.811-.891 9.115-4.227 14.092-2.779l.006.006zM18.209 71.32a1.004 1.004 0 1 0 1.963-.421l-.841-3.924a100.41 100.41 0 0 0 2.682-6.742l1.804 2.066a1.003 1.003 0 0 0 1.417.096c.418-.365.461-.998.096-1.416l-2.561-2.934a127.497 127.497 0 0 0 1.976-6.492l2.094.942a1.003 1.003 0 0 0 1.328-.503c.228-.506.002-1.1-.503-1.329l-2.393-1.077c.459-1.764.906-3.614 1.337-5.56l3.426-.265a1.005 1.005 0 0 0-.154-2.003l-2.808.216 1.438-5.369 4.582-1.566a1.003 1.003 0 1 0-.649-1.901l-3.306 1.129.111-.416c.23-.86 1.05-2.086 1.754-2.628l6.835-5.253c1.054-.813 1.045-1.518.852-1.965-.194-.449-.701-.938-2.014-.729l-6.203.995-4.899-10.28c-.5-1.049-.644-2.519-.46-3.876l7.319 9.454c.772.996 2.234 1.656 3.546 1.656.216 0 .429-.019.633-.056L49.9 18.746 38.025 29.688c-1.777 1.638-3.657 4.748-4.282 7.082l-9.378 35.032c-3.579 1.024-7.172 2.9-10.308 5.282a85.53 85.53 0 0 0 3.87-7.08l.282 1.316zM8.674 85.689l.002-.004c3.987-6.379 11.293-10.678 16.766-12.106.01-.003.017-.011.027-.015a.963.963 0 0 0 .327-.158c.012-.01.019-.022.03-.032a.983.983 0 0 0 .207-.233c.024-.039.036-.08.055-.121.023-.051.054-.097.069-.151l9.525-35.578c.522-1.951 2.218-4.755 3.703-6.125l14.424-13.291c.027-.025.039-.06.063-.087a.958.958 0 0 0 .12-.164 1.04 1.04 0 0 0 .117-.355.82.82 0 0 0 .004-.21c-.002-.035.01-.068.003-.104-.005-.026-.022-.047-.029-.072a1.02 1.02 0 0 0-.073-.187.988.988 0 0 0-.106-.177c-.017-.021-.021-.045-.039-.064-.022-.025-.054-.035-.079-.057a.939.939 0 0 0-.536-.246.882.882 0 0 0-.192-.003c-.037.003-.072-.009-.11-.001l-16.696 3.047c-.717.131-1.782-.276-2.23-.856L25.993 7.967c-.043-.055-.101-.087-.152-.131l1.929-3.289c.91-1.55 3.173-2.585 4.94-2.268l20.716 3.749c2.727.491 5.258-.555 5.781-2.383l.396-1.392c6.041 1.954 11.722 5.248 17.232 10.012-5.949-.063-12.535 3.399-12.867 3.576a.999.999 0 0 0-.512.695C60.34 32.683 48.874 49.824 39.012 64.023c-3.668 4.966-6.972 9.781-9.668 14.147-.614.95-1.203 1.88-1.754 2.782-1.008.641-2.007 1.271-2.989 1.891-4.689 2.957-9.121 5.751-13.336 8.985a6.806 6.806 0 0 0-.217-.289 1.002 1.002 0 0 0-1.338-.21l-.937.62c-1.338-2.322-1.242-3.992-.099-6.26zm5.121 12.27c-1.913.318-4.233-1.797-5.281-3.429l1.521-1.007c.211.227.488.428.876.486.602.09 1.099-.22 1.464-.502 4.099-3.154 8.449-5.906 13.045-8.806-1.979 3.67-3.179 6.838-3.302 9.464l-.004.063c-3.396 2.131-6.176 3.383-8.319 3.731zM88.033 30.68c-4.678 6.22-13.504 15.649-31.481 33.626C43.046 77.811 32.306 87.301 24.423 92.71c.684-2.567 2.445-6.212 4.977-10.528 9.174-5.854 19.553-12.971 32.345-25.764 12.034-12.033 26.458-28.542 30.226-35.219.606 1.513.146 4.051-3.938 9.481z"></path></g><!----></svg>